# xmcd CD database file
#
# Track frame offsets:
#	150
#	17116
#	35854
#	53943
#	70111
#	85171
#	108657
#	128596
#	142416
#	157298
#	182457
#	197621
#	220155
#	237914
#
# Disc length: 3423 seconds
#
# Revision: 0
# Processed by: cddbd v1.5.2PL0 Copyright (c) Steve Scherf et al.
# Submitted via: CDex 1.70beta2
#
DISCID=d00d5d0e
DTITLE=Sheppard,T.G. - Partners In Rhyme
DYEAR=2015
DGENRE=Country
TTITLE0=Down On My Knees (with The Oak Ridge Boys)
TTITLE1=The Killer (with Jerry Lee Lewis)
TTITLE2=Why Me Lord (with Conway Twitty)
TTITLE3=Song Man (with Merle Haggard)
TTITLE4=15 Rounds With Jose Cuervo (with Delbert McClinton)
TTITLE5=The Next One (with Lorrie Morgan)
TTITLE6=100% Chance of Pain (with B.J.Thomas and Jimmy Fortune)
TTITLE7=It's A Man Thing (with George Jones)
TTITLE8=Wine To Remember And Whiskey To Forget (with Mickey Gilley)
TTITLE9=Dead Girl Walking (with Kelly Lang)
TTITLE10=In Texas (with Willie Nelson)
TTITLE11=Have You Ever Really Loved A Woman (with Engelbert Humperdinck)
TTITLE12=I'm Not Going Anywhere (with Crystal Gayle)
TTITLE13=If You Knew (with Ricky Skaggs and The Whites)
EXTD=YEAR: 2015
EXTT0=
EXTT1=
EXTT2=
EXTT3=
EXTT4=
EXTT5=
EXTT6=
EXTT7=
EXTT8=
EXTT9=
EXTT10=
EXTT11=
EXTT12=
EXTT13=
PLAYORDER=
